<svg width="18" height="19" viewBox="0 0 18 19" fill="none" xmlns="http://www.w3.org/2000/svg">
<path d="M8.30192 4.93486L12.4134 9.04634H3.89941V9.94589H12.4134L8.29451 14.0648L8.93055 14.7008L14.1352 9.49611L8.93795 4.29883L8.30192 4.93486Z" fill="#1A3348"/>
<path fill-rule="evenodd" clip-rule="evenodd" d="M8.11424 4.93495L8.93884 4.11035L14.3247 9.4962L8.93143 14.8895L8.10684 14.0649L12.0924 10.0793H3.76697V8.91309H12.0924L8.11424 4.93495ZM12.4143 9.04642H3.9003V9.94597H12.4143L8.2954 14.0649L8.93143 14.7009L14.1361 9.4962L8.93884 4.29891L8.30281 4.93495L12.4143 9.04642Z" fill="#1A3348"/>
<path fill-rule="evenodd" clip-rule="evenodd" d="M8.00823 4.93457L8.93889 4.00391L14.4308 9.49582L8.93148 14.9951L8.00082 14.0645L11.9114 10.1539H3.69202V8.83771H11.9114L8.00823 4.93457ZM12.0924 8.91271H3.76702V10.0789H12.0924L8.10688 14.0645L8.93148 14.8891L14.3247 9.49582L8.93889 4.10997L8.11429 4.93457L12.0924 8.91271ZM8.29545 14.0645L8.93148 14.7005L14.1362 9.49582L8.93889 4.29853L8.30285 4.93457L12.4143 9.04604H3.90035V9.94559H12.4143L8.29545 14.0645ZM3.97535 9.87059H12.5954L8.40151 14.0645L8.93148 14.5944L14.0301 9.49582L8.93889 4.4046L8.40892 4.93457L12.5954 9.12104H3.97535V9.87059Z" fill="#1A3348"/>
</svg>
